<svg width="45" height="45" viewBox="0 0 45 45" fill="none" xmlns="http://www.w3.org/2000/svg">
<g clip-path="url(#clip0_87_174)">
<path d="M12.75 20.2438V21.2211C12.75 21.737 12.75 21.9951 12.8229 22.2277C12.8874 22.4337 12.9931 22.6243 13.1336 22.7883C13.2923 22.9735 13.511 23.11 13.9485 23.3835L15.5445 24.3811M15.5445 24.3811C16.4507 21.9641 18.7823 20.2438 21.5156 20.2438H23.1094C25.8428 20.2438 28.1743 21.9641 29.0805 24.3811M15.5445 24.3811L17.3036 25.4804M31.875 20.2438V21.2211C31.875 21.737 31.875 21.9951 31.802 22.2277C31.7376 22.4337 31.6318 22.6243 31.4914 22.7883C31.3326 22.9735 31.114 23.11 30.6765 23.3835L29.0805 24.3811M29.0805 24.3811L27.3215 25.4804M17.3036 25.4804L16.1058 27.8762C15.9951 28.0974 15.9375 28.3414 15.9375 28.5889V31.4001M17.3036 25.4804L18.5048 26.2312C18.7356 26.3755 18.8509 26.4475 18.9747 26.4985C19.0845 26.5438 19.1991 26.5768 19.3162 26.5965C19.4482 26.6188 19.5843 26.6188 19.8564 26.6188H24.7686C25.0407 26.6188 25.1768 26.6188 25.3088 26.5965C25.4259 26.5768 25.5405 26.5438 25.6503 26.4985C25.7741 26.4475 25.8895 26.3755 26.1201 26.2312L27.3215 25.4804M27.3215 25.4804L28.5192 27.8762C28.63 28.0974 28.6875 28.3414 28.6875 28.5889V31.4001M6.375 17.1626H19.125M25.5 17.1626H38.25M12.75 17.1626V13.9751M31.875 17.1626V13.9751" stroke="black" stroke-width="2.625" stroke-linecap="round" stroke-linejoin="round"/>
<circle cx="22.5" cy="22.5" r="21.1875" stroke="black" stroke-width="2.625"/>
<line x1="6.59483" y1="38.0496" x2="38.0948" y2="8.04957" stroke="black" stroke-width="2.625"/>
</g>
<defs>
<clipPath id="clip0_87_174">
<rect width="45" height="45" fill="white"/>
</clipPath>
</defs>
</svg>
