<svg width="45" height="45" viewBox="0 0 45 45" fill="none" xmlns="http://www.w3.org/2000/svg">
<g clip-path="url(#clip0_87_216)">
<path d="M14.545 12.7776C14.7794 13.012 14.911 13.3299 14.911 13.6614C14.911 13.9928 14.7794 14.3107 14.545 14.5451C12.4383 16.6565 11.2551 19.5174 11.2551 22.5001C11.2551 25.4828 12.4383 28.3437 14.545 30.4551C14.6644 30.5704 14.7596 30.7083 14.8251 30.8608C14.8907 31.0134 14.9251 31.1774 14.9266 31.3434C14.928 31.5093 14.8964 31.6739 14.8335 31.8275C14.7707 31.9812 14.6779 32.1207 14.5605 32.2381C14.4431 32.3555 14.3036 32.4483 14.15 32.5111C13.9963 32.574 13.8317 32.6056 13.6658 32.6042C13.4998 32.6027 13.3358 32.5682 13.1833 32.5027C13.0308 32.4372 12.8928 32.342 12.7775 32.2226C10.2027 29.6421 8.75665 26.1455 8.75665 22.5001C8.75665 18.8547 10.2027 15.3582 12.7775 12.7776C13.0119 12.5433 13.3298 12.4116 13.6613 12.4116C13.9927 12.4116 14.3106 12.5433 14.545 12.7776ZM30.455 30.4551C30.3356 30.5704 30.2404 30.7083 30.1749 30.8608C30.1094 31.0134 30.0749 31.1774 30.0735 31.3434C30.072 31.5093 30.1036 31.6739 30.1665 31.8275C30.2293 31.9812 30.3222 32.1207 30.4395 32.2381C30.5569 32.3555 30.6965 32.4483 30.8501 32.5111C31.0037 32.574 31.1683 32.6056 31.3343 32.6042C31.5002 32.6027 31.6643 32.5682 31.8168 32.5027C31.9693 32.4372 32.1072 32.342 32.2225 32.2226C34.7973 29.6421 36.2434 26.1455 36.2434 22.5001C36.2434 18.8547 34.7973 15.3582 32.2225 12.7776C32.1072 12.6582 31.9693 12.563 31.8168 12.4975C31.6643 12.432 31.5002 12.3975 31.3343 12.396C31.1683 12.3946 31.0037 12.4262 30.8501 12.4891C30.6965 12.5519 30.5569 12.6447 30.4395 12.7621C30.3222 12.8795 30.2293 13.019 30.1665 13.1727C30.1036 13.3263 30.072 13.4909 30.0735 13.6569C30.0749 13.8228 30.1094 13.9869 30.1749 14.1394C30.2404 14.2919 30.3356 14.4298 30.455 14.5451C32.5618 16.6565 33.7449 19.5174 33.7449 22.5001C33.7449 25.4828 32.5618 28.3437 30.455 30.4551ZM16.7238 29.6151L16.7688 29.6589C16.9875 29.8681 17.2785 29.985 17.5813 29.9851C17.7517 29.9836 17.92 29.9478 18.0763 29.8799C18.2327 29.8121 18.3738 29.7135 18.4913 29.5901C18.7161 29.3443 18.837 29.0209 18.8286 28.6879C18.8202 28.3549 18.6832 28.0381 18.4463 27.8039C17.0419 26.396 16.2533 24.4886 16.2533 22.5001C16.2533 20.5116 17.0419 18.6042 18.4463 17.1964C18.5657 17.081 18.6609 16.9431 18.7264 16.7906C18.7919 16.6381 18.8264 16.4741 18.8278 16.3081C18.8293 16.1421 18.7976 15.9775 18.7348 15.8239C18.6719 15.6703 18.5791 15.5307 18.4618 15.4134C18.3444 15.296 18.2048 15.2032 18.0512 15.1403C17.8976 15.0775 17.733 15.0459 17.567 15.0473C17.401 15.0487 17.237 15.0832 17.0845 15.1487C16.932 15.2142 16.7941 15.3095 16.6788 15.4289C15.7495 16.3629 15.0134 17.4709 14.5127 18.6896C14.012 19.9083 13.7564 21.2138 13.7606 22.5313C13.7648 23.8489 14.0286 25.1527 14.5371 26.3682C15.0455 27.5836 15.7886 28.687 16.7238 29.6151ZM26.6888 15.4901C26.4544 15.7219 26.321 16.0369 26.3177 16.3665C26.3145 16.6961 26.4415 17.0137 26.6713 17.2501C28.0483 18.6646 28.8143 20.5636 28.804 22.5376C28.7937 24.5117 28.008 26.4026 26.6163 27.8026C26.4969 27.9179 26.4016 28.0558 26.3361 28.2084C26.2706 28.3609 26.2361 28.5249 26.2347 28.6909C26.2333 28.8568 26.2649 29.0214 26.3277 29.175C26.3906 29.3287 26.4834 29.4682 26.6008 29.5856C26.7181 29.703 26.8577 29.7958 27.0113 29.8586C27.1649 29.9215 27.3295 29.9531 27.4955 29.9517C27.6615 29.9502 27.8255 29.9157 27.978 29.8502C28.1305 29.7847 28.2685 29.6895 28.3838 29.5701C30.2394 27.7033 31.2869 25.182 31.3005 22.5499C31.314 19.9179 30.2925 17.3859 28.4563 15.5001C28.224 15.2636 27.9073 15.129 27.5759 15.126C27.2444 15.1229 26.9253 15.2517 26.6888 15.4839V15.4901ZM26.25 22.5001C26.25 23.2418 26.0301 23.9668 25.618 24.5835C25.206 25.2002 24.6203 25.6808 23.9351 25.9647C23.2499 26.2485 22.4959 26.3227 21.7684 26.1781C21.041 26.0334 20.3728 25.6762 19.8484 25.1518C19.3239 24.6273 18.9668 23.9591 18.8221 23.2317C18.6774 22.5043 18.7516 21.7503 19.0355 21.065C19.3193 20.3798 19.7999 19.7942 20.4166 19.3821C21.0333 18.97 21.7583 18.7501 22.5 18.7501C23.4946 18.7501 24.4484 19.1452 25.1517 19.8485C25.8549 20.5517 26.25 21.5055 26.25 22.5001ZM23.75 22.5001C23.75 22.2529 23.6767 22.0112 23.5394 21.8056C23.402 21.6001 23.2068 21.4399 22.9784 21.3453C22.75 21.2506 22.4986 21.2259 22.2562 21.2741C22.0137 21.3224 21.7909 21.4414 21.6161 21.6162C21.4413 21.791 21.3223 22.0138 21.274 22.2562C21.2258 22.4987 21.2506 22.7501 21.3452 22.9785C21.4398 23.2069 21.6 23.4021 21.8056 23.5394C22.0111 23.6768 22.2528 23.7501 22.5 23.7501C22.8315 23.7501 23.1495 23.6184 23.3839 23.384C23.6183 23.1496 23.75 22.8316 23.75 22.5001Z" fill="black"/>
<circle cx="22.5" cy="22.5" r="21.1875" stroke="black" stroke-width="2.625"/>
</g>
<defs>
<clipPath id="clip0_87_216">
<rect width="45" height="45" fill="white"/>
</clipPath>
</defs>
</svg>
