<svg width="45" height="45" viewBox="0 0 45 45" fill="none" xmlns="http://www.w3.org/2000/svg">
<g clip-path="url(#clip0_87_195)">
<g clip-path="url(#clip1_87_195)">
<path d="M8.5297 25.7155C8.58912 26.5225 8.73808 27.3232 8.97248 28.0958C9.20428 28.8597 9.52061 29.5991 9.91258 30.2935C10.3049 30.9883 10.7743 31.6405 11.3078 32.2317C11.8482 32.8304 12.4564 33.3691 13.1157 33.8328C13.578 34.1579 14.1182 34.3258 14.678 34.3182C15.1304 34.3121 15.5764 34.1883 15.9676 33.9603C16.3627 33.73 16.6943 33.3975 16.9269 32.9987L19.4484 28.6738C19.7234 28.2021 19.8447 27.665 19.7991 27.1205C19.7543 26.5847 19.5509 26.0806 19.2108 25.6628C18.9743 25.3723 18.7599 24.9507 18.6354 24.6494C18.5018 24.1699 18.2218 23.738 17.8363 23.4211C17.4031 23.0651 16.8558 22.8693 16.2953 22.8696L11.1705 22.8726C11.1599 22.8726 11.148 22.8727 11.1363 22.8729C10.4091 22.8827 9.71013 23.1958 9.21859 23.732C8.72751 24.268 8.47634 24.9909 8.5297 25.7155ZM11.1626 24.8249C11.1656 24.8249 11.1687 24.8249 11.1717 24.8249L16.2965 24.8218C16.5236 24.8217 16.7154 24.9822 16.7618 25.2015C16.7686 25.2336 16.7791 25.2646 16.7911 25.2951C16.8775 25.5156 17.1979 26.2823 17.6968 26.8952C17.8814 27.122 17.9092 27.4381 17.7619 27.6906L15.2405 32.0156C15.1098 32.2398 14.885 32.3632 14.6518 32.3663C14.5109 32.3682 14.3669 32.3262 14.2387 32.236C12.0544 30.7 10.6739 28.2542 10.4766 25.5723C10.4471 25.1718 10.7622 24.8303 11.1626 24.8249Z" fill="black"/>
<path d="M14.6419 34.3415C14.0906 34.3415 13.5583 34.1721 13.1027 33.8518C12.4421 33.3872 11.8326 32.8473 11.291 32.2473C10.7565 31.655 10.2861 31.0015 9.89281 30.305C9.49997 29.6092 9.183 28.8682 8.95075 28.1027C8.71585 27.3285 8.56657 26.526 8.50706 25.7175C8.45324 24.9866 8.70651 24.2575 9.20187 23.717C9.6976 23.1762 10.4026 22.8603 11.1361 22.8504C11.1478 22.8503 11.1598 22.8502 11.1706 22.8502L16.2954 22.8472C16.8623 22.8472 17.4141 23.0448 17.8509 23.4038C18.2366 23.7209 18.5231 24.1612 18.6575 24.6436C18.7803 24.9404 18.9955 25.3624 19.2286 25.6487C19.5716 26.0702 19.7768 26.5785 19.822 27.1189C19.8679 27.6682 19.7455 28.2099 19.4682 28.6856L16.9467 33.0105C16.7122 33.4128 16.3776 33.7481 15.9793 33.9803C15.5846 34.2104 15.1348 34.3352 14.6784 34.3413C14.6662 34.3415 14.6541 34.3415 14.6419 34.3415ZM16.2969 22.8927L11.1706 22.8957C11.16 22.8957 11.1482 22.8958 11.1367 22.896C10.4157 22.9057 9.72275 23.2161 9.23545 23.7477C8.74856 24.279 8.49963 24.9957 8.55249 25.7141C8.61177 26.5193 8.76041 27.3185 8.99436 28.0894C9.22566 28.8517 9.5413 29.5897 9.9325 30.2826C10.3241 30.9762 10.7925 31.6269 11.3248 32.2168C11.8641 32.8143 12.4711 33.3518 13.1289 33.8144C13.5867 34.1364 14.1229 34.3044 14.6778 34.2957C15.1263 34.2897 15.5684 34.167 15.9563 33.9409C16.3479 33.7126 16.6768 33.383 16.9073 32.9875L19.4288 28.6626C19.7014 28.195 19.8217 27.6625 19.7766 27.1227C19.7321 26.5915 19.5305 26.0918 19.1932 25.6775C18.957 25.3873 18.7394 24.9608 18.6145 24.6583C18.4816 24.1823 18.2005 23.7502 17.8219 23.439C17.3933 23.0868 16.8517 22.8927 16.2969 22.8927ZM14.6429 32.3894C14.4951 32.3894 14.3508 32.3429 14.2257 32.2549C12.0274 30.709 10.6526 28.274 10.454 25.5743C10.4393 25.3748 10.5057 25.1838 10.641 25.0361C10.7766 24.8881 10.9618 24.8051 11.1624 24.8024H11.1719L16.2966 24.7993C16.5304 24.7993 16.7354 24.9666 16.7843 25.197C16.79 25.2241 16.7989 25.2528 16.8124 25.2871C16.8986 25.5068 17.2183 26.2714 17.7146 26.8811C17.9049 27.1149 17.9319 27.4449 17.7818 27.7023L15.2603 32.0273C15.1301 32.2507 14.9028 32.386 14.6523 32.3894L14.6429 32.3894ZM11.1629 24.8479C10.975 24.8505 10.8016 24.9283 10.6745 25.0669C10.5478 25.2051 10.4856 25.3841 10.4994 25.5709C10.697 28.257 12.0648 30.6797 14.2518 32.2177C14.3693 32.3002 14.5045 32.3439 14.6429 32.3439L14.6516 32.3438C14.886 32.3407 15.0988 32.2138 15.2208 32.0044L17.7423 27.6794C17.8829 27.4383 17.8575 27.1291 17.6792 26.9099C17.1787 26.295 16.8567 25.525 16.7699 25.3037C16.7555 25.267 16.7458 25.2361 16.7396 25.2065C16.6952 24.997 16.5089 24.8448 16.2967 24.8448L11.1629 24.8479Z" fill="black"/>
<path d="M35.435 23.7323C34.9435 23.1961 34.2445 22.8829 33.5174 22.8732C33.5057 22.8731 33.4938 22.873 33.4831 22.873L28.3583 22.8699C27.7978 22.8695 27.2505 23.0654 26.8173 23.4214C26.4318 23.7383 26.1518 24.1702 26.0182 24.6497C25.8938 24.9509 25.6793 25.3726 25.4428 25.6631C25.1027 26.0809 24.8993 26.5849 24.8545 27.1208C24.809 27.6653 24.9302 28.2024 25.2052 28.674L27.7267 32.9989C27.9592 33.3977 28.2909 33.7302 28.686 33.9606C29.0772 34.1887 29.5232 34.3124 29.9757 34.3185C30.5354 34.326 31.0757 34.1581 31.538 33.833C32.1973 33.3694 32.8055 32.8307 33.3458 32.232C33.8794 31.6407 34.3489 30.9886 34.7411 30.2937C35.1331 29.5995 35.4493 28.8599 35.6812 28.096C35.9157 27.3235 36.0646 26.5227 36.124 25.7158C36.1774 24.991 35.9263 24.2681 35.435 23.7323ZM34.1772 25.5725C33.9798 28.2544 32.5993 30.7001 30.4151 32.2362C30.2868 32.3264 30.1427 32.3683 30.0019 32.3665C29.7687 32.3634 29.5439 32.2399 29.4132 32.0157L26.8917 27.6907C26.7445 27.4382 26.7723 27.122 26.9569 26.8954C27.4559 26.2824 27.7762 25.5157 27.8626 25.2952C27.8746 25.2647 27.8851 25.2337 27.8919 25.2016C27.9384 24.9822 28.1302 24.8218 28.3573 24.8219L33.482 24.8249C33.485 24.8249 33.4882 24.825 33.4912 24.825C33.8914 24.8305 34.2067 25.172 34.1772 25.5725Z" fill="black"/>
<path d="M30.0115 34.3416C29.9994 34.3416 29.9874 34.3416 29.9753 34.3414C29.5188 34.3352 29.0689 34.2103 28.6745 33.9803C28.2761 33.748 27.9415 33.4126 27.7071 33.0105L25.1856 28.6856C24.9082 28.21 24.7859 27.6683 24.8318 27.119C24.8769 26.5786 25.0821 26.0701 25.4251 25.6488C25.6581 25.3626 25.8734 24.9406 25.9972 24.641C26.1307 24.1612 26.4171 23.7209 26.8029 23.4039C27.2397 23.0449 27.7916 22.8472 28.3569 22.8472L33.5176 22.8504C34.2512 22.8603 34.9561 23.1762 35.4519 23.7171C35.9473 24.2575 36.2006 24.9866 36.1468 25.7176C36.0871 26.5264 35.9379 27.3289 35.7031 28.1027C35.4705 28.8688 35.1535 29.6098 34.7609 30.305C34.368 31.0011 33.8976 31.6546 33.3627 32.2474C32.8211 32.8475 32.2116 33.3873 31.5511 33.8518C31.0954 34.1722 30.563 34.3416 30.0115 34.3416ZM28.3584 22.8927C27.8021 22.8927 27.2605 23.0868 26.8318 23.4391C26.4532 23.7502 26.1721 24.1824 26.0402 24.6558C25.9143 24.961 25.6966 25.3876 25.4605 25.6775C25.1233 26.0918 24.9216 26.5915 24.8772 27.1228C24.8321 27.6627 24.9523 28.1951 25.2249 28.6626L27.7464 32.9875C27.9769 33.3829 28.3058 33.7126 28.6975 33.941C29.0852 34.167 29.5273 34.2897 29.976 34.2958C30.5313 34.3044 31.0671 34.1364 31.5249 33.8145C32.1826 33.352 32.7895 32.8145 33.3289 32.2168C33.8615 31.6266 34.33 30.9758 34.7212 30.2826C35.1122 29.5903 35.4278 28.8524 35.6595 28.0894C35.8933 27.3189 36.042 26.5197 36.1013 25.7142C36.1542 24.9957 35.9053 24.279 35.4183 23.7479C34.931 23.2162 34.238 22.9058 33.5171 22.8961L33.4832 22.8959L28.3584 22.8927ZM30.0109 32.3894L30.0016 32.3894C29.7511 32.386 29.5238 32.2507 29.3935 32.0273L26.872 27.7023C26.7219 27.4448 26.7489 27.1148 26.9392 26.8811C27.4355 26.2714 27.7552 25.5069 27.8414 25.2871C27.855 25.2525 27.8639 25.2239 27.8696 25.197C27.9184 24.9666 28.1233 24.7993 28.3569 24.7993H28.3572L33.4915 24.8024C33.692 24.8051 33.8773 24.8881 34.0129 25.0362C34.1482 25.1838 34.2146 25.3749 34.1999 25.5743C34.0012 28.274 32.6264 30.7091 30.4282 32.2549C30.303 32.3429 30.1586 32.3894 30.0109 32.3894ZM28.3569 24.8221V24.8448C28.1447 24.8448 27.9586 24.9969 27.9142 25.2065C27.9079 25.2359 27.8983 25.2668 27.8838 25.3037C27.7971 25.525 27.475 26.2951 26.9745 26.9099C26.7961 27.129 26.7708 27.4382 26.9114 27.6794L29.4329 32.0044C29.555 32.2138 29.7678 32.3407 30.0022 32.3438L30.0108 32.3439C30.1492 32.3439 30.2844 32.3003 30.4019 32.2177C32.5889 30.6797 33.9567 28.257 34.1544 25.5709C34.1682 25.3842 34.106 25.2053 33.9793 25.067C33.8522 24.9283 33.6787 24.8505 33.4908 24.8479L33.4862 24.8479L28.3571 24.8448L28.3569 24.8221Z" fill="black"/>
<path d="M28.154 14.1948C28.527 13.5628 28.6211 12.7969 28.4122 12.0934C28.2034 11.3904 27.707 10.8005 27.0503 10.4748C26.2927 10.0992 25.4919 9.81153 24.6701 9.61978C23.8573 9.43018 23.0228 9.33403 22.1895 9.33398C21.4276 9.33398 20.6643 9.4145 19.9207 9.5733C19.1678 9.73411 18.4304 9.97621 17.7289 10.2929C17.0519 10.5986 16.5313 11.1749 16.3006 11.8741C16.0695 12.5742 16.1451 13.3484 16.5078 13.9982L18.9483 18.3695C19.4156 19.2066 20.303 19.7267 21.2641 19.7267C21.3966 19.7267 21.5302 19.7167 21.6614 19.6969C21.7939 19.677 21.9481 19.6669 22.12 19.6669H22.12C22.4221 19.6669 22.69 19.6981 22.8266 19.7174C23.0325 19.7728 23.2445 19.8008 23.4587 19.8008C23.8729 19.8008 24.2828 19.6942 24.644 19.4924C25.0182 19.2833 25.3313 18.9776 25.5493 18.6081L28.154 14.1948ZM23.8681 17.6159C23.7803 17.7648 23.6227 17.8487 23.4588 17.8487C23.4073 17.8487 23.3553 17.8405 23.3046 17.8233C23.2734 17.8129 23.2414 17.8061 23.209 17.8009C23.0507 17.7753 22.6226 17.7147 22.12 17.7147C21.8801 17.7147 21.6232 17.7286 21.3707 17.7666C21.3351 17.7719 21.2995 17.7746 21.2642 17.7746C21.0132 17.7746 20.7778 17.6418 20.6528 17.418L18.2124 13.0467C18.0095 12.6832 18.1529 12.2435 18.5324 12.0721C19.6943 11.5475 20.9411 11.286 22.1895 11.2861C23.5559 11.2861 24.9242 11.5995 26.1832 12.2237C26.5457 12.4035 26.6786 12.854 26.4729 13.2025L23.8681 17.6159Z" fill="black"/>
<path d="M23.4588 19.8237C23.2431 19.8237 23.0284 19.7954 22.8207 19.7395C22.6904 19.7212 22.422 19.6898 22.1201 19.6898C21.9494 19.6898 21.7963 19.6998 21.6648 19.7196C21.5326 19.7395 21.3978 19.7496 21.2642 19.7496C20.2948 19.7496 19.3998 19.2251 18.9284 18.3807L16.488 14.0095C16.1222 13.3541 16.046 12.5733 16.2791 11.8671C16.5118 11.1618 17.0368 10.5805 17.7196 10.2722C18.4225 9.95486 19.1615 9.71221 19.916 9.55109C21.4764 9.21781 23.1169 9.23403 24.6753 9.59766C25.4989 9.78977 26.3014 10.078 27.0605 10.4545C27.7229 10.7829 28.2235 11.3779 28.4342 12.087C28.6448 12.7965 28.5499 13.569 28.1738 14.2064L25.569 18.6198C25.3489 18.9927 25.0329 19.3014 24.6552 19.5124C24.2905 19.7161 23.8768 19.8237 23.4588 19.8237ZM22.12 19.6442C22.4248 19.6442 22.6955 19.676 22.8298 19.6949C23.4367 19.8578 24.0904 19.7756 24.6328 19.4726C25.0036 19.2655 25.3137 18.9626 25.5297 18.5966L28.1344 14.1832C28.5042 13.5566 28.5975 12.7973 28.3904 12.0999C28.1834 11.403 27.6912 10.8181 27.0402 10.4952C26.2842 10.1204 25.4851 9.83338 24.6649 9.64199C23.1123 9.27978 21.4787 9.26387 19.9255 9.59561C19.1741 9.75609 18.4382 9.99769 17.7383 10.3137C17.0671 10.6167 16.551 11.1881 16.3222 11.8813C16.0932 12.5754 16.1681 13.3429 16.5278 13.9872L18.9682 18.3585C19.4315 19.1884 20.3113 19.7039 21.2641 19.7039C21.3955 19.7039 21.528 19.694 21.658 19.6744C21.7917 19.6544 21.9471 19.6442 22.12 19.6442ZM23.4588 17.8716C23.4038 17.8716 23.3496 17.8626 23.2973 17.845C23.2711 17.8362 23.2419 17.8294 23.2054 17.8235C23.0455 17.7976 22.6197 17.7376 22.1203 17.7376V17.7148L22.12 17.7376C21.8525 17.7376 21.6016 17.7549 21.3741 17.7891C21.3377 17.7946 21.3007 17.7974 21.2642 17.7974C21.0017 17.7974 20.7598 17.6563 20.6329 17.4291L18.1925 13.0578C18.0909 12.8758 18.0697 12.6701 18.1328 12.4788C18.1957 12.2884 18.3342 12.1365 18.523 12.0513C19.681 11.5284 20.9144 11.2633 22.189 11.2633C23.5687 11.2634 24.9532 11.5885 26.1933 12.2033C26.374 12.2929 26.5052 12.449 26.5627 12.6426C26.6195 12.8339 26.5939 13.0423 26.4925 13.2141L23.8877 17.6275C23.799 17.7781 23.6346 17.8716 23.4588 17.8716ZM22.12 17.692H22.1203C22.6231 17.692 23.0517 17.7525 23.2127 17.7785C23.2517 17.7848 23.2832 17.7922 23.3118 17.8018C23.3594 17.8178 23.4089 17.826 23.4588 17.826C23.6186 17.826 23.7679 17.7411 23.8486 17.6044L26.4534 13.191C26.5498 13.0277 26.5732 12.8375 26.5191 12.6556C26.4653 12.4743 26.3424 12.3282 26.1731 12.2442C24.9392 11.6324 23.5617 11.309 22.1895 11.309C20.921 11.309 19.6939 11.5728 18.5418 12.0929C18.3648 12.1729 18.2349 12.315 18.1762 12.4932C18.1171 12.6723 18.137 12.8649 18.2323 13.0357L20.6728 17.407C20.7916 17.6197 21.0183 17.7519 21.2643 17.7519C21.2985 17.7519 21.3332 17.7493 21.3674 17.7442C21.597 17.7096 21.8503 17.692 22.12 17.692Z" fill="black"/>
<path d="M22.2983 20.2463C20.5714 20.2463 19.1714 21.6463 19.1714 23.3732C19.1714 25.1001 20.5713 26.5001 22.2983 26.5001C24.0251 26.5001 25.4251 25.1001 25.4251 23.3732C25.4251 21.6464 24.0252 20.2463 22.2983 20.2463ZM22.2983 24.548C21.6505 24.548 21.1235 24.021 21.1235 23.3733C21.1235 22.7254 21.6505 22.1985 22.2983 22.1985C22.946 22.1985 23.473 22.7254 23.473 23.3733C23.473 24.021 22.946 24.548 22.2983 24.548Z" fill="black"/>
<path d="M22.2982 26.5227C20.5615 26.5227 19.1486 25.1097 19.1486 23.373C19.1486 21.6363 20.5615 20.2234 22.2982 20.2234C24.0349 20.2234 25.4479 21.6363 25.4479 23.373C25.4479 25.1097 24.0349 26.5227 22.2982 26.5227ZM22.2982 20.269C20.5866 20.269 19.1941 21.6614 19.1941 23.373C19.1941 25.0846 20.5866 26.4771 22.2982 26.4771C24.0098 26.4771 25.4023 25.0846 25.4023 23.373C25.4023 21.6615 24.0098 20.269 22.2982 20.269ZM22.2982 24.5706C21.6379 24.5706 21.1007 24.0334 21.1007 23.3731C21.1007 22.7128 21.6379 22.1755 22.2982 22.1755C22.9585 22.1755 23.4957 22.7128 23.4957 23.3731C23.4957 24.0334 22.9585 24.5706 22.2982 24.5706ZM22.2982 22.2211C21.663 22.2211 21.1462 22.7379 21.1462 23.3731C21.1462 24.0083 21.663 24.525 22.2982 24.525C22.9334 24.525 23.4502 24.0083 23.4502 23.3731C23.4502 22.7379 22.9334 22.2211 22.2982 22.2211Z" fill="black"/>
</g>
<circle cx="22.5" cy="22.5" r="21.1875" stroke="black" stroke-width="2.625"/>
</g>
<defs>
<clipPath id="clip0_87_195">
<rect width="45" height="45" fill="white"/>
</clipPath>
<clipPath id="clip1_87_195">
<rect width="27.654" height="27.654" fill="white" transform="translate(8.5 8)"/>
</clipPath>
</defs>
</svg>
