<svg width="45" height="45" viewBox="0 0 45 45" fill="none" xmlns="http://www.w3.org/2000/svg">
<g clip-path="url(#clip0_87_238)">
<g clip-path="url(#clip1_87_238)">
<path d="M22.4608 13.9198C23.6362 13.2146 24.8116 12.5878 25.9869 12.1176C27.1623 11.6475 28.3377 11.2557 29.4347 11.0206C30.9235 10.7855 32.0989 10.7855 33.0392 11.0989C34.0578 11.4124 34.7631 12.0392 35.2332 12.9012C35.625 13.6848 35.7034 14.6251 35.5466 15.7221C35.2332 17.2109 34.3713 19.0131 32.8825 21.0504C32.6474 21.3639 32.4123 21.6773 32.0989 21.9907C32.4123 22.3825 32.6474 22.696 32.8825 23.0094C34.3713 25.0467 35.2332 26.849 35.5466 28.3378C35.7034 29.3564 35.625 30.3751 35.2332 31.1587C34.7631 31.9422 34.0578 32.5691 33.0392 32.8825C32.2556 33.196 31.3153 33.2743 30.1399 33.1176C30.0616 33.196 30.0616 33.196 29.9832 33.2743C29.4347 33.8228 28.6511 34.2146 27.8675 34.2146C27.0056 34.2146 26.3004 33.8228 25.7519 33.2743C25.2034 32.7258 24.8116 32.0206 24.8116 31.1587C24.8116 30.2967 25.2034 29.5915 25.7519 29.043C26.3004 28.4945 27.0056 28.181 27.8675 28.181C28.6511 28.181 29.4347 28.4945 29.9832 29.043C30.375 29.4348 30.6884 29.9833 30.7668 30.6101C31.3937 30.6101 31.8638 30.6101 32.2556 30.4534C32.569 30.3751 32.8041 30.2184 32.8825 29.9833C33.0392 29.6698 33.1175 29.2781 32.9608 28.7295C32.8041 27.6325 32.0989 26.2221 30.8452 24.5766C30.6884 24.3415 30.5317 24.1848 30.375 23.9497C28.7295 25.6736 26.7705 27.3191 24.8116 28.6512C21.6772 30.8452 18.3078 32.4907 15.5653 32.9609C14.0765 33.2743 12.9011 33.196 11.9608 32.8825C10.9422 32.5691 10.2369 31.9422 9.76679 31.1587C9.375 30.3751 9.29664 29.3564 9.45336 28.3378C9.68843 26.849 10.5504 25.0467 12.0392 23.0094C12.3526 22.696 12.5877 22.3825 12.8228 21.9907C12.5877 21.6773 12.3526 21.3639 12.0392 21.0504C10.5504 19.0131 9.68843 17.2109 9.45336 15.7221C9.29664 14.6251 9.375 13.6848 9.76679 12.9012C10.2369 12.0392 10.9422 11.4124 11.9608 11.0989C12.9011 10.7855 14.0765 10.7855 15.5653 11.0206C17.681 11.4124 20.0317 12.431 22.4608 13.9198ZM18.1511 22.8527C18.8563 22.8527 19.5616 23.1661 20.0317 23.6363C20.5019 24.1064 20.8153 24.8116 20.8153 25.5169C20.8153 26.3004 20.5019 26.9273 20.0317 27.3975C19.5616 27.946 18.8563 28.181 18.1511 28.181C17.4459 28.181 16.7407 27.946 16.2705 27.3975C15.8004 26.9273 15.4869 26.3004 15.4869 25.5169C15.4869 25.2818 15.4869 25.1251 15.5653 24.89C15.1735 24.5766 14.8601 24.2631 14.5466 23.9497C14.3899 24.1848 14.2332 24.3415 14.1549 24.5766C12.9011 26.2221 12.1959 27.6325 11.9608 28.7295C11.8825 29.2781 11.9608 29.6698 12.0392 29.9833C12.1959 30.2184 12.431 30.3751 12.7444 30.4534C13.2929 30.6101 14.0765 30.6885 15.0952 30.4534C17.4459 29.9833 20.4235 28.5728 23.3228 26.6139C25.2817 25.2818 27.084 23.7146 28.7295 21.9907C27.084 20.3452 25.2817 18.7781 23.3228 17.446C20.4235 15.487 17.4459 13.9982 15.0952 13.6064C14.0765 13.3713 13.2929 13.3713 12.7444 13.5281C12.431 13.6848 12.1959 13.8415 12.0392 14.0766C11.9608 14.3116 11.8825 14.7818 11.9608 15.2519C12.1959 16.3489 12.9011 17.8378 14.1549 19.4833C14.2332 19.7184 14.3899 19.8751 14.5466 20.1101C14.9384 19.7184 15.2519 19.4049 15.6437 19.0131C15.6437 18.8564 15.5653 18.6213 15.5653 18.4646C15.5653 17.681 15.8787 16.9758 16.4272 16.5057C16.8974 15.9572 17.6026 15.6437 18.3862 15.6437C19.0914 15.6437 19.7966 15.9572 20.3452 16.5057C20.8153 16.9758 21.1287 17.681 21.1287 18.4646C21.1287 19.1698 20.8153 19.8751 20.3452 20.4236C19.7966 20.8937 19.0914 21.2072 18.3862 21.2072C17.9944 21.2072 17.6026 21.1288 17.2892 20.9721C16.9757 21.3639 16.584 21.6773 16.2705 21.9907C16.584 22.3825 16.8974 22.696 17.2892 23.0094C17.5243 22.931 17.8377 22.8527 18.1511 22.8527ZM18.6213 25.1251C18.4646 24.9684 18.3078 24.89 18.1511 24.89C17.9944 24.89 17.8377 24.9684 17.681 25.1251C17.6026 25.2034 17.5243 25.3601 17.5243 25.5169C17.5243 25.6736 17.6026 25.8303 17.681 25.987C17.8377 26.0654 17.9944 26.1437 18.1511 26.1437C18.3078 26.1437 18.4646 26.0654 18.6213 25.987C18.6996 25.8303 18.778 25.6736 18.778 25.5169C18.778 25.3601 18.6996 25.2034 18.6213 25.1251ZM28.4944 30.4534C28.3377 30.2967 28.1026 30.2184 27.8675 30.2184C27.5541 30.2184 27.319 30.2967 27.1623 30.4534C27.0056 30.6885 26.9272 30.9236 26.9272 31.1587C26.9272 31.3937 27.0056 31.7072 27.1623 31.8639C27.319 32.0206 27.5541 32.099 27.8675 32.099C28.1026 32.099 28.3377 32.0206 28.4944 31.8639C28.7295 31.7072 28.8078 31.3937 28.8078 31.1587C28.8078 30.9236 28.7295 30.6885 28.4944 30.4534ZM18.8563 17.9161C18.778 17.8378 18.5429 17.7594 18.3862 17.7594C18.1511 17.7594 17.9944 17.8378 17.8377 17.9161C17.7593 18.0728 17.681 18.2295 17.681 18.4646C17.681 18.6213 17.7593 18.8564 17.8377 18.9348C17.9944 19.0915 18.1511 19.1698 18.3862 19.1698C18.5429 19.1698 18.778 19.0915 18.8563 18.9348C19.0131 18.8564 19.0914 18.6213 19.0914 18.4646C19.0914 18.2295 19.0131 18.0728 18.8563 17.9161ZM30.375 20.1101C30.5317 19.8751 30.6884 19.7184 30.8452 19.4833C32.0989 17.8378 32.8041 16.3489 32.9608 15.2519C33.0392 14.7818 33.0392 14.3116 32.8825 14.0766C32.8041 13.8415 32.569 13.6848 32.2556 13.5281C31.7071 13.3713 30.9235 13.3713 29.9049 13.6064C29.0429 13.7631 28.0243 14.0766 26.9272 14.4684C26.3004 14.7818 25.5952 15.0952 24.9683 15.487C26.8489 16.8191 28.7295 18.3863 30.375 20.1101Z" fill="black"/>
</g>
<circle cx="22.5" cy="22.5" r="21.1875" stroke="black" stroke-width="2.625"/>
</g>
<defs>
<clipPath id="clip0_87_238">
<rect width="45" height="45" fill="white"/>
</clipPath>
<clipPath id="clip1_87_238">
<rect width="26.25" height="26.25" fill="white" transform="translate(9.375 9.375)"/>
</clipPath>
</defs>
</svg>
