<svg width="43" height="43" viewBox="0 0 43 43" fill="none" xmlns="http://www.w3.org/2000/svg">
<path d="M29.8364 12.9991C29.8448 12.9991 29.8561 12.9991 29.8673 12.9991C30.1612 12.9991 30.4341 13.0905 30.6577 13.248L30.6534 13.2452C30.8166 13.3872 30.9263 13.5869 30.953 13.8119V13.8162C30.9811 13.9877 30.9966 14.1846 30.9966 14.3857C30.9966 14.4771 30.9937 14.5671 30.9867 14.6571V14.6444C30.6703 17.9758 29.2978 26.0547 28.6003 29.7841C28.305 31.3633 27.7242 31.8921 27.1617 31.9427C25.9397 32.0566 25.0116 31.1355 23.8275 30.3593C21.9741 29.1429 20.9264 28.3863 19.1278 27.2008C17.048 25.8326 18.3966 25.0774 19.5806 23.8483C19.8914 23.5249 25.2787 18.6241 25.3842 18.1797C25.3898 18.153 25.3927 18.1235 25.3927 18.0926C25.3927 17.9829 25.3519 17.883 25.2858 17.8071C25.2127 17.7593 25.1213 17.7326 25.0256 17.7326C24.9623 17.7326 24.9019 17.7452 24.8456 17.7663L24.8484 17.7649C24.6628 17.8071 21.7022 19.7637 15.9666 23.6346C15.3408 24.1282 14.5505 24.4404 13.6898 24.4769H13.6814C12.4622 24.3293 11.3555 24.0579 10.305 23.6712L10.4091 23.7049C9.09 23.2746 8.04234 23.0482 8.13234 22.3197C8.18016 21.941 8.70234 21.5533 9.69891 21.1568C15.8377 18.4821 19.9312 16.7191 21.9797 15.8679C24.2395 14.6683 26.8594 13.6812 29.6142 13.0413L29.835 12.9977L29.8364 12.9991ZM21.1289 0.321777C9.45422 0.349902 0 9.821 0 21.4999C0 33.1957 9.48094 42.678 21.1781 42.678C32.8753 42.678 42.3562 33.1971 42.3562 21.4999C42.3562 9.821 32.902 0.349902 21.2302 0.321777H21.2273C21.1945 0.321777 21.1617 0.321777 21.1289 0.321777Z" fill="#1E3427"/>
</svg>
