<svg width="46" height="45" viewBox="0 0 46 45" fill="none" xmlns="http://www.w3.org/2000/svg">
<path fill-rule="evenodd" clip-rule="evenodd" d="M35.9535 31.7725C35.4112 33.3074 33.2557 34.5772 31.5367 34.9486C30.36 35.1984 28.8254 35.3961 23.6549 33.2534C17.8477 30.8474 9.78371 22.2772 9.78371 16.574C9.78371 13.6706 11.4577 10.2898 14.385 10.2898C15.7935 10.2898 16.104 10.3173 16.5675 11.4291C17.1097 12.739 18.4327 15.9663 18.5902 16.2971C19.2405 17.6543 17.9287 18.4488 16.9769 19.6304C16.6732 19.986 16.329 20.3705 16.7137 21.0322C17.0962 21.6804 18.4192 23.8366 20.3632 25.5674C22.8742 27.8046 24.9104 28.5188 25.6395 28.8226C26.1817 29.0477 26.8297 28.9953 27.2257 28.5721C27.7275 28.0297 28.3507 27.1298 28.9852 26.243C29.4329 25.6083 30.0022 25.5291 30.5985 25.7542C31.0012 25.8937 36.1199 28.2709 36.3359 28.6512C36.4957 28.9281 36.4957 30.2375 35.9535 31.7725ZM22.8607 0H22.8494C10.4452 0 0.356201 10.092 0.356201 22.5C0.356201 27.42 1.94247 31.9845 4.64022 35.6869L1.83671 44.0475L10.4835 41.2844C14.0407 43.6386 18.2864 45 22.8607 45C35.2649 45 45.3562 34.908 45.3562 22.5C45.3562 10.092 35.2649 0 22.8607 0Z" fill="#1E3427"/>
</svg>
